# Blender 3.6.5
# www.blender.org
mtllib Bin_Trash.mtl
o Cube
v 0.271726 1.000000 -0.271726
v 0.186934 0.000000 -0.186934
v 0.271726 1.000000 0.271726
v 0.186934 0.000000 0.186934
v -0.271726 1.000000 -0.271726
v -0.186934 0.000000 -0.186934
v -0.271726 1.000000 0.271726
v -0.186934 0.000000 0.186934
v 0.317723 1.000000 0.317723
v -0.317723 1.000000 0.317723
v 0.317723 1.000000 -0.317723
v -0.317723 1.000000 -0.317723
v 0.158570 0.213047 0.158570
v -0.158570 0.213047 0.158570
v 0.158570 0.213047 -0.158570
v -0.158570 0.213047 -0.158570
v 0.287322 0.767559 -0.287322
v -0.287322 0.767559 0.287322
v 0.287322 0.767559 0.287322
v -0.287322 0.767559 -0.287322
v 0.237128 0.383779 -0.237128
v 0.237128 0.383779 0.237128
v -0.237128 0.383779 -0.237128
v -0.237128 0.383779 0.237128
vn 0.9898 0.1423 -0.0000
vn -0.0000 -0.1297 0.9916
vn -0.9916 -0.1297 -0.0000
vn -0.0000 -1.0000 -0.0000
vn 0.9916 -0.1297 -0.0000
vn -0.0000 -0.1297 -0.9916
vn -0.0000 1.0000 -0.0000
vn -0.0000 0.1423 -0.9898
vn -0.0000 0.1423 0.9898
vn -0.9898 0.1423 -0.0000
vt 0.848977 0.947261
vt 0.848977 0.934212
vt 0.854748 0.936929
vt 0.854748 0.944544
vt 0.977796 0.825536
vt 0.978098 0.827602
vt 0.969209 0.827602
vt 0.969511 0.825536
vt 0.828090 0.913748
vt 0.826842 0.914160
vt 0.826842 0.905541
vt 0.828090 0.905954
vt 0.857954 0.828278
vt 0.848977 0.828278
vt 0.848977 0.819301
vt 0.857954 0.819301
vt 0.833463 0.913748
vt 0.832214 0.914160
vt 0.832214 0.905541
vt 0.833463 0.905954
vt 0.843410 0.820780
vt 0.841725 0.821510
vt 0.841725 0.806251
vt 0.843410 0.806981
vt 0.836857 0.792097
vt 0.823807 0.792097
vt 0.822703 0.790992
vt 0.837961 0.790992
vt 0.836857 0.805147
vt 0.837961 0.806251
vt 0.823807 0.805147
vt 0.822703 0.806251
vt 0.830318 0.829125
vt 0.822703 0.829125
vt 0.822703 0.821510
vt 0.830318 0.821510
vt 0.847472 0.932003
vt 0.847472 0.918953
vt 0.855042 0.921670
vt 0.855042 0.929286
vt 0.854748 0.947261
vt 0.854748 0.934212
vt 0.860519 0.936929
vt 0.860519 0.944544
vt 0.855042 0.932003
vt 0.855042 0.918953
vt 0.860813 0.921670
vt 0.860813 0.929286
vt 0.846193 0.819574
vt 0.846193 0.808186
vt 0.835524 0.913067
vt 0.835524 0.906634
vt 0.830152 0.913067
vt 0.830152 0.906634
vt 0.915450 0.021752
vt 1.002289 0.978248
vt 0.008112 0.978248
vt 0.094951 0.021752
vt 0.969184 0.766190
vt 0.969701 0.769723
vt 0.962152 0.769723
vt 0.962669 0.766190
vt 0.832214 0.912386
vt 0.832214 0.907315
vt 0.837586 0.912386
vt 0.837586 0.907315
vt 0.848977 0.818369
vt 0.848977 0.809392
s 0
usemtl TEXTURE
f 5/1/1 7/2/1 14/3/1 16/4/1
f 19/5/2 9/6/2 10/7/2 18/8/2
f 18/9/3 10/10/3 12/11/3 20/12/3
f 6/13/4 2/14/4 4/15/4 8/16/4
f 17/17/5 11/18/5 9/19/5 19/20/5
f 20/21/6 12/22/6 11/23/6 17/24/6
f 3/25/7 7/26/7 10/27/7 9/28/7
f 1/29/7 3/25/7 9/28/7 11/30/7
f 7/26/7 5/31/7 12/32/7 10/27/7
f 5/31/7 1/29/7 11/30/7 12/32/7
f 15/33/7 16/34/7 14/35/7 13/36/7
f 7/37/8 3/38/8 13/39/8 14/40/8
f 1/41/9 5/42/9 16/43/9 15/44/9
f 3/45/10 1/46/10 15/47/10 13/48/10
f 23/49/6 20/21/6 17/24/6 21/50/6
f 21/51/5 17/17/5 19/20/5 22/52/5
f 24/53/3 18/9/3 20/12/3 23/54/3
f 4/59/2 22/60/2 24/61/2 8/62/2
f 8/63/3 24/53/3 23/54/3 6/64/3
f 2/65/5 21/51/5 22/52/5 4/66/5
f 6/67/6 23/49/6 21/50/6 2/68/6
usemtl SYMBOLS
f 22/55/2 19/56/2 18/57/2 24/58/2
