# Blender 3.6.5
# www.blender.org
mtllib Trash_Paper.mtl
o Paper
v -0.043341 -0.031019 0.043341
v -0.043341 0.031019 0.043341
v -0.043341 -0.031019 -0.043341
v -0.043341 0.031019 -0.043341
v 0.043341 -0.031019 0.043341
v 0.043341 0.031019 0.043341
v 0.043341 -0.031019 -0.043341
v 0.043341 0.031019 -0.043341
v -0.047243 -0.033812 -0.024576
v -0.056671 -0.040559 0.000000
v -0.050943 -0.036460 0.026317
v -0.051437 -0.019001 0.051437
v -0.044926 0.000000 0.044926
v -0.045699 0.017069 0.045699
v -0.052945 0.037893 0.027259
v -0.048922 0.035013 0.000000
v -0.053619 0.038375 -0.027576
v -0.039598 0.015014 -0.039598
v -0.046634 -0.000000 -0.046634
v -0.048637 -0.018058 -0.048637
v 0.029159 -0.040784 -0.056985
v 0.000000 -0.037305 -0.052124
v -0.022951 -0.031341 -0.043790
v -0.025874 0.035786 -0.050002
v -0.000000 0.038772 -0.054175
v 0.026643 0.036957 -0.051638
v 0.042286 0.015919 -0.042286
v 0.056857 -0.000000 -0.056857
v 0.048677 -0.018071 -0.048677
v 0.049840 -0.035670 0.025797
v 0.050157 -0.035897 0.000000
v 0.043300 -0.030989 -0.022720
v 0.050898 0.036428 -0.026295
v 0.049910 0.035721 0.000000
v 0.047831 0.034232 0.024852
v 0.052688 0.019422 0.052688
v 0.048166 -0.000000 0.048166
v 0.046684 -0.017400 0.046684
v -0.026470 -0.036693 0.051270
v -0.000000 -0.033845 0.047290
v 0.027714 -0.038586 0.053914
v 0.025116 0.034634 0.048392
v -0.000000 0.041795 0.058397
v -0.028636 0.039988 0.055874
v -0.056440 -0.017767 0.024826
v -0.070134 -0.000000 0.029778
v -0.068744 0.021133 0.029527
v -0.066625 -0.020355 -0.000000
v -0.071164 0.000000 0.000000
v -0.072731 0.022020 0.000000
v -0.078302 -0.023747 -0.033180
v -0.070297 0.000000 -0.029840
v -0.069763 0.021411 -0.029917
v -0.025235 -0.018061 -0.057513
v -0.026599 -0.000000 -0.061789
v -0.030624 0.021918 -0.071614
v 0.000000 -0.022957 -0.076166
v 0.000000 0.000000 -0.079138
v -0.000000 0.020208 -0.066086
v 0.029368 -0.021019 -0.068328
v 0.029299 0.000000 -0.068876
v 0.028789 0.020604 -0.066812
v 0.068522 -0.021072 -0.029443
v 0.055764 -0.000000 -0.024303
v 0.061498 0.019151 -0.026758
v 0.067593 -0.020619 0.000000
v 0.074101 0.000000 0.000000
v 0.079587 0.023889 -0.000000
v 0.059636 -0.018641 0.026047
v 0.069272 0.000000 0.029449
v 0.055516 0.017515 0.024472
v 0.027207 -0.019472 0.062672
v 0.031810 -0.000000 0.075467
v 0.025569 0.018299 0.058385
v -0.000000 -0.022981 0.076256
v -0.000000 0.000000 0.080265
v 0.000000 0.018115 0.058412
v -0.024447 -0.017496 0.055448
v -0.029220 0.000000 0.068671
v -0.025662 0.018366 0.058629
v -0.026187 -0.042943 -0.026187
v -0.000000 -0.053007 -0.031275
v 0.024958 -0.040642 -0.024958
v -0.028945 -0.048629 0.000000
v -0.000000 -0.059216 0.000000
v 0.031066 -0.052615 0.000000
v -0.026536 -0.043597 0.026536
v 0.000000 -0.044389 0.026687
v 0.027461 -0.045329 0.027461
v 0.028487 0.047251 -0.028487
v 0.000000 0.050851 -0.030127
v -0.029732 0.049582 -0.029732
v 0.026823 0.044643 0.000000
v 0.000000 0.058108 0.000000
v -0.028000 0.046855 -0.000000
v 0.024896 0.040526 0.024896
v -0.000000 0.042881 0.025885
v -0.029446 0.049047 0.029446
vn -0.8705 -0.3473 0.3488
vn -0.8766 -0.1559 0.4552
vn -0.9890 -0.1087 0.1005
vn -0.8886 -0.4261 0.1701
vn -0.8121 0.3949 0.4295
vn -0.8785 0.4776 0.0137
vn -0.8633 0.1574 -0.4794
vn -0.8128 -0.4440 -0.3772
vn -0.7891 0.3979 -0.4681
vn -0.5304 -0.6577 0.5349
vn -0.6628 -0.2965 0.6875
vn -0.6002 -0.7406 0.3021
vn -0.6620 -0.0049 0.7495
vn -0.6128 0.1869 0.7678
vn -0.5969 0.4565 0.6597
vn -0.5762 0.7895 0.2114
vn -0.5266 0.8500 0.0124
vn -0.5625 0.7765 -0.2840
vn -0.5897 0.4404 -0.6770
vn -0.6699 0.1874 -0.7184
vn -0.5796 0.1231 -0.8056
vn -0.4265 -0.3404 -0.8380
vn -0.3757 -0.8746 -0.3065
vn -0.2439 -0.7899 -0.5627
vn -0.5434 -0.8381 0.0481
vn -0.4532 -0.4297 -0.7810
vn -0.5621 -0.0329 -0.8264
vn -0.0866 0.0408 -0.9954
vn -0.1896 -0.4946 -0.8482
vn -0.4827 0.3624 -0.7973
vn 0.0003 0.4701 -0.8826
vn 0.4359 0.1442 -0.8884
vn 0.4041 -0.4170 -0.8142
vn 0.3873 0.4802 -0.7871
vn -0.3240 -0.7607 -0.5624
vn -0.3144 0.7262 -0.6114
vn 0.0147 0.7939 -0.6079
vn 0.3283 0.7311 -0.5981
vn 0.6617 0.4845 -0.5721
vn 0.7521 0.3556 -0.5549
vn 0.7918 0.1676 -0.5873
vn 0.7387 -0.3956 -0.5458
vn 0.3488 -0.8341 -0.4274
vn 0.5983 -0.7548 -0.2690
vn -0.1661 -0.8347 -0.5251
vn 0.8285 -0.4662 -0.3103
vn 0.9123 0.0917 -0.3991
vn 0.9964 -0.0722 -0.0437
vn 0.8569 -0.5149 -0.0248
vn 0.8136 0.3088 -0.4926
vn 0.8742 0.4855 0.0111
vn 0.8835 -0.0734 0.4627
vn 0.8148 -0.4488 0.3669
vn 0.8007 0.4580 0.3862
vn 0.5138 -0.8338 -0.2019
vn 0.5625 0.7742 -0.2902
vn 0.4690 0.8779 0.0969
vn 0.4866 0.8403 0.2391
vn 0.4657 0.7818 0.4145
vn 0.6750 0.4515 0.5836
vn 0.7670 -0.0460 0.6400
vn 0.7213 -0.3428 0.6018
vn 0.6492 -0.7155 0.2578
vn 0.6527 -0.5682 0.5012
vn 0.5984 -0.7987 -0.0627
vn 0.4391 -0.5010 0.7458
vn 0.4627 0.1134 0.8792
vn -0.0905 0.2029 0.9750
vn -0.0985 -0.6016 0.7927
vn 0.2630 0.5083 0.8200
vn 0.0180 0.4703 0.8823
vn -0.5098 0.1284 0.8507
vn -0.4070 -0.4281 0.8069
vn -0.3904 0.3046 0.8688
vn 0.2381 -0.8183 0.5232
vn 0.2531 0.8078 0.5323
vn 0.1384 0.7755 0.6161
vn -0.2739 0.6890 0.6710
vn -0.1983 -0.8040 0.5605
vn -0.0668 -0.8676 0.4928
vn -0.3324 -0.8711 -0.3616
vn -0.0580 -0.9350 -0.3498
vn -0.0303 -0.9986 0.0430
vn -0.2990 -0.9541 0.0168
vn 0.3947 -0.8855 -0.2452
vn 0.3841 -0.9228 -0.0295
vn -0.0474 -0.9314 0.3608
vn -0.1831 -0.9318 0.3134
vn 0.2307 -0.9229 0.3084
vn 0.3194 0.9245 -0.2078
vn 0.0250 0.9626 -0.2699
vn 0.0664 0.9928 0.0996
vn 0.3243 0.9377 0.1247
vn -0.3036 0.9205 -0.2461
vn -0.2996 0.9529 0.0472
vn 0.1285 0.9673 0.2185
vn 0.2656 0.9413 0.2084
vn -0.2432 0.9544 0.1730
vt 0.310521 0.042646
vt 0.310521 0.037463
vt 0.311925 0.037463
vt 0.311925 0.042646
vt 0.310521 0.032280
vt 0.311925 0.032280
vt 0.313328 0.037463
vt 0.313328 0.042646
vt 0.313328 0.032280
vt 0.309118 0.159443
vt 0.309118 0.154260
vt 0.310521 0.154260
vt 0.310521 0.159443
vt 0.309118 0.042646
vt 0.309118 0.037463
vt 0.309118 0.032280
vt 0.309118 0.027098
vt 0.310521 0.027098
vt 0.311925 0.027098
vt 0.313328 0.027098
vt 0.314731 0.027098
vt 0.314731 0.032280
vt 0.314731 0.037463
vt 0.314731 0.042646
vt 0.313328 0.047829
vt 0.314731 0.047829
vt 0.311925 0.047829
vt 0.311925 0.154260
vt 0.311925 0.159443
vt 0.310521 0.063377
vt 0.310521 0.058194
vt 0.311925 0.058194
vt 0.311925 0.063377
vt 0.310521 0.053011
vt 0.311925 0.053011
vt 0.313328 0.058194
vt 0.313328 0.063377
vt 0.313328 0.053011
vt 0.309118 0.068560
vt 0.309118 0.063377
vt 0.310521 0.068560
vt 0.309118 0.058194
vt 0.309118 0.053011
vt 0.309118 0.047829
vt 0.310521 0.047829
vt 0.314731 0.053011
vt 0.314731 0.058194
vt 0.314731 0.063377
vt 0.313328 0.068560
vt 0.314731 0.068560
vt 0.311925 0.174866
vt 0.311925 0.171312
vt 0.312887 0.171312
vt 0.312887 0.174866
vt 0.310962 0.174866
vt 0.310962 0.171312
vt 0.318941 0.042646
vt 0.317537 0.042646
vt 0.317537 0.037463
vt 0.318941 0.037463
vt 0.316134 0.042646
vt 0.316134 0.037463
vt 0.317537 0.032280
vt 0.318941 0.032280
vt 0.316134 0.032280
vt 0.320344 0.047829
vt 0.318941 0.047829
vt 0.320344 0.042646
vt 0.317538 0.047829
vt 0.316134 0.047829
vt 0.316134 0.027098
vt 0.317538 0.027098
vt 0.318941 0.027098
vt 0.320344 0.032280
vt 0.320344 0.027098
vt 0.320344 0.037463
vt 0.318941 0.063377
vt 0.317537 0.063377
vt 0.317537 0.058194
vt 0.318941 0.058194
vt 0.316134 0.063377
vt 0.316134 0.058194
vt 0.317537 0.053011
vt 0.318941 0.053011
vt 0.316134 0.053011
vt 0.320344 0.068560
vt 0.318941 0.068560
vt 0.320344 0.063377
vt 0.317538 0.068560
vt 0.316134 0.068560
vt 0.320344 0.164625
vt 0.318941 0.164625
vt 0.318941 0.159443
vt 0.320344 0.159443
vt 0.320344 0.169808
vt 0.318941 0.169808
vt 0.320344 0.174991
vt 0.318941 0.174991
vt 0.313328 0.195722
vt 0.311925 0.195722
vt 0.311925 0.190539
vt 0.313328 0.190539
vt 0.310521 0.195722
vt 0.310521 0.190539
vt 0.311925 0.185356
vt 0.313328 0.185356
vt 0.310521 0.185356
vt 0.314731 0.089290
vt 0.313328 0.089290
vt 0.313328 0.084108
vt 0.314731 0.084108
vt 0.312887 0.189081
vt 0.311925 0.189081
vt 0.311925 0.185527
vt 0.312887 0.185527
vt 0.310962 0.189081
vt 0.310962 0.185527
vt 0.310521 0.089290
vt 0.309118 0.089290
vt 0.309118 0.084108
vt 0.310521 0.084108
vt 0.309118 0.078925
vt 0.310521 0.078925
vt 0.309118 0.073742
vt 0.310521 0.073742
vt 0.310521 0.180174
vt 0.311925 0.180174
vt 0.313328 0.180174
vt 0.314731 0.185356
vt 0.314731 0.180174
vt 0.314731 0.190539
vt 0.314731 0.195722
vt 0.318941 0.084108
vt 0.317537 0.084108
vt 0.317537 0.078925
vt 0.318941 0.078925
vt 0.316134 0.084108
vt 0.316134 0.078925
vt 0.317537 0.073742
vt 0.318941 0.073742
vt 0.316134 0.073742
vt 0.320344 0.089290
vt 0.318941 0.089290
vt 0.320344 0.084108
vt 0.317538 0.089290
vt 0.316134 0.089290
vt 0.314731 0.078925
vt 0.314731 0.073742
vt 0.320344 0.073742
vt 0.320344 0.078925
s 1
usemtl TEXTURE
f 45/1/1 46/2/2 49/3/3 48/4/4
f 46/2/2 47/5/5 50/6/6 49/3/3
f 48/4/4 49/3/3 52/7/7 51/8/8
f 49/3/3 50/6/6 53/9/9 52/7/7
f 1/10/10 12/11/11 45/12/1 11/13/12
f 12/14/11 13/15/13 46/2/2 45/1/1
f 13/15/13 14/16/14 47/5/5 46/2/2
f 14/16/14 2/17/15 15/18/16 47/5/5
f 47/5/5 15/18/16 16/19/17 50/6/6
f 50/6/6 16/19/17 17/20/18 53/9/9
f 53/9/9 17/20/18 4/21/19 18/22/20
f 52/7/7 53/9/9 18/22/20 19/23/21
f 51/8/8 52/7/7 19/23/21 20/24/22
f 9/25/23 51/8/8 20/24/22 3/26/24
f 10/27/25 48/4/4 51/8/8 9/25/23
f 11/13/12 45/12/1 48/28/4 10/29/25
f 54/30/26 55/31/27 58/32/28 57/33/29
f 55/31/27 56/34/30 59/35/31 58/32/28
f 57/33/29 58/32/28 61/36/32 60/37/33
f 58/32/28 59/35/31 62/38/34 61/36/32
f 3/39/24 20/40/22 54/30/26 23/41/35
f 20/40/22 19/42/21 55/31/27 54/30/26
f 19/42/21 18/43/20 56/34/30 55/31/27
f 18/43/20 4/44/19 24/45/36 56/34/30
f 56/34/30 24/45/36 25/27/37 59/35/31
f 59/35/31 25/27/37 26/25/38 62/38/34
f 62/38/34 26/25/38 8/26/39 27/46/40
f 61/36/32 62/38/34 27/46/40 28/47/41
f 60/37/33 61/36/32 28/47/41 29/48/42
f 21/49/43 60/37/33 29/48/42 7/50/44
f 22/51/45 57/52/29 60/53/33 21/54/43
f 23/55/35 54/56/26 57/52/29 22/51/45
f 63/57/46 64/58/47 67/59/48 66/60/49
f 64/58/47 65/61/50 68/62/51 67/59/48
f 66/60/49 67/59/48 70/63/52 69/64/53
f 67/59/48 68/62/51 71/65/54 70/63/52
f 7/66/44 29/67/42 63/57/46 32/68/55
f 29/67/42 28/69/41 64/58/47 63/57/46
f 28/69/41 27/70/40 65/61/50 64/58/47
f 27/70/40 8/26/39 33/24/56 65/61/50
f 65/61/50 33/24/56 34/23/57 68/62/51
f 68/62/51 34/23/57 35/22/58 71/65/54
f 71/65/54 35/22/58 6/21/59 36/71/60
f 70/63/52 71/65/54 36/71/60 37/72/61
f 69/64/53 70/63/52 37/72/61 38/73/62
f 30/74/63 69/64/53 38/73/62 5/75/64
f 31/76/65 66/60/49 69/64/53 30/74/63
f 32/68/55 63/57/46 66/60/49 31/76/65
f 72/77/66 73/78/67 76/79/68 75/80/69
f 73/78/67 74/81/70 77/82/71 76/79/68
f 75/80/69 76/79/68 79/83/72 78/84/73
f 76/79/68 77/82/71 80/85/74 79/83/72
f 5/86/64 38/87/62 72/77/66 41/88/75
f 38/87/62 37/89/61 73/78/67 72/77/66
f 37/89/61 36/90/60 74/81/70 73/78/67
f 36/90/60 6/50/59 42/48/76 74/81/70
f 74/81/70 42/48/76 43/47/77 77/82/71
f 77/82/71 43/47/77 44/46/78 80/85/74
f 80/85/74 44/46/78 2/26/15 14/70/14
f 79/83/72 80/85/74 14/70/14 13/69/13
f 78/84/73 79/83/72 13/69/13 12/67/11
f 39/91/79 78/92/73 12/93/11 1/94/10
f 40/95/80 75/96/69 78/92/73 39/91/79
f 41/97/75 72/98/66 75/96/69 40/95/80
f 81/99/81 82/100/82 85/101/83 84/102/84
f 82/100/82 83/103/85 86/104/86 85/101/83
f 84/102/84 85/101/83 88/105/87 87/106/88
f 85/101/83 86/104/86 89/107/89 88/105/87
f 3/108/24 23/109/35 81/110/81 9/111/23
f 23/112/35 22/113/45 82/114/82 81/115/81
f 22/113/45 21/116/43 83/117/85 82/114/82
f 21/118/43 7/119/44 32/120/55 83/121/85
f 83/121/85 32/120/55 31/122/65 86/123/86
f 86/123/86 31/122/65 30/124/63 89/125/89
f 89/125/89 30/124/63 5/39/64 41/41/75
f 88/105/87 89/107/89 41/126/75 40/127/80
f 87/106/88 88/105/87 40/127/80 39/128/79
f 11/129/12 87/106/88 39/128/79 1/130/10
f 10/131/25 84/102/84 87/106/88 11/129/12
f 9/132/23 81/99/81 84/102/84 10/131/25
f 90/133/90 91/134/91 94/135/92 93/136/93
f 91/134/91 92/137/94 95/138/95 94/135/92
f 93/136/93 94/135/92 97/139/96 96/140/97
f 94/135/92 95/138/95 98/141/98 97/139/96
f 8/142/39 26/143/38 90/133/90 33/144/56
f 26/143/38 25/145/37 91/134/91 90/133/90
f 25/145/37 24/146/36 92/137/94 91/134/91
f 24/146/36 4/108/19 17/111/18 92/137/94
f 92/137/94 17/111/18 16/147/17 95/138/95
f 95/138/95 16/147/17 15/148/16 98/141/98
f 98/141/98 15/148/16 2/50/15 44/90/78
f 97/139/96 98/141/98 44/90/78 43/89/77
f 96/140/97 97/139/96 43/89/77 42/87/76
f 35/149/58 96/140/97 42/87/76 6/86/59
f 34/150/57 93/136/93 96/140/97 35/149/58
f 33/144/56 90/133/90 93/136/93 34/150/57
