# Blender 3.6.5
# www.blender.org
mtllib Trash_Bottle_Plastic.mtl
o Bottle_Plastic
v 0.050676 -0.183426 -0.050676
v 0.050676 -0.183426 0.050676
v -0.050676 -0.183426 -0.050676
v -0.050676 -0.183426 0.050676
v 0.050676 0.073123 -0.050676
v -0.050676 0.073123 0.050676
v 0.050676 0.073123 0.050676
v -0.050676 0.073123 -0.050676
v -0.019563 0.073123 0.019563
v -0.019563 0.103663 0.019563
v 0.019563 0.103663 0.019563
v 0.019563 0.103663 -0.019563
v -0.019563 0.103663 -0.019563
v 0.019563 0.073123 -0.019563
v 0.019563 0.073123 0.019563
v -0.019563 0.073123 -0.019563
v 0.019563 0.127392 0.019563
v -0.019563 0.127392 0.019563
v 0.019563 0.127392 -0.019563
v -0.019563 0.127392 -0.019563
v 0.021408 0.103663 0.021408
v -0.021408 0.103663 0.021408
v 0.021408 0.103663 -0.021408
v -0.021408 0.103663 -0.021408
v 0.021408 0.127392 0.021408
v -0.021408 0.127392 0.021408
v 0.021408 0.127392 -0.021408
v -0.021408 0.127392 -0.021408
v 0.050676 -0.026457 -0.050676
v 0.050676 -0.135168 -0.050676
v 0.050676 -0.026457 0.050676
v 0.050676 -0.135168 0.050676
v -0.050676 -0.026457 -0.050676
v -0.050676 -0.135168 -0.050676
v -0.050676 -0.135168 0.050676
v -0.050676 -0.026457 0.050676
v 0.045532 -0.026457 -0.045532
v 0.045532 -0.135168 -0.045532
v 0.045532 -0.026457 0.045532
v 0.045532 -0.135168 0.045532
v -0.045532 -0.026457 -0.045532
v -0.045532 -0.135168 -0.045532
v -0.045532 -0.135168 0.045532
v -0.045532 -0.026457 0.045532
v 0.045532 -0.040417 -0.045532
v 0.045532 -0.121207 -0.045532
v 0.045532 -0.040417 0.045532
v 0.045532 -0.121207 0.045532
v -0.045532 -0.121207 -0.045532
v -0.045532 -0.040417 -0.045532
v -0.045532 -0.121207 0.045532
v -0.045532 -0.040417 0.045532
vn -0.0000 1.0000 -0.0000
vn -0.0000 -1.0000 -0.0000
vn -0.0000 -0.0000 -1.0000
vn 1.0000 -0.0000 -0.0000
vn -1.0000 -0.0000 -0.0000
vn -0.0000 -0.0000 1.0000
vt 0.082029 0.609431
vt 0.102618 0.609431
vt 0.096298 0.615752
vt 0.088350 0.615752
vt 0.134236 0.646242
vt 0.130602 0.646242
vt 0.130602 0.620072
vt 0.134236 0.620072
vt 0.082029 0.630020
vt 0.088350 0.623700
vt 0.116169 0.581953
vt 0.116169 0.556606
vt 0.120341 0.556606
vt 0.120341 0.581953
vt 0.124991 0.585556
vt 0.124991 0.563476
vt 0.128625 0.563476
vt 0.128625 0.585556
vt 0.128625 0.585557
vt 0.132259 0.563476
vt 0.132259 0.585556
vt 0.128684 0.581953
vt 0.128684 0.556606
vt 0.132855 0.556606
vt 0.132855 0.581953
vt 0.116169 0.658289
vt 0.116169 0.617556
vt 0.117780 0.617556
vt 0.117780 0.658289
vt 0.122760 0.652054
vt 0.122760 0.616570
vt 0.124163 0.616570
vt 0.124163 0.652054
vt 0.125566 0.616570
vt 0.125566 0.652054
vt 0.121000 0.658289
vt 0.121000 0.617556
vt 0.122611 0.617556
vt 0.122611 0.658289
vt 0.102618 0.630020
vt 0.096298 0.623700
vt 0.342446 0.894273
vt 0.342446 0.904376
vt 0.343849 0.894273
vt 0.343849 0.904376
vt 0.341043 0.864602
vt 0.339640 0.864602
vt 0.338088 0.865587
vt 0.336478 0.865587
vt 0.338238 0.864602
vt 0.333257 0.865587
vt 0.331647 0.865587
vt 0.128684 0.632649
vt 0.128684 0.607301
vt 0.132855 0.607301
vt 0.132855 0.632649
vt 0.128625 0.629718
vt 0.128625 0.607637
vt 0.132259 0.607637
vt 0.132259 0.629718
vt 0.124991 0.629718
vt 0.124991 0.607637
vt 0.128625 0.607637
vt 0.116169 0.632649
vt 0.116169 0.607301
vt 0.120341 0.607301
vt 0.120341 0.632649
vt 0.128625 0.604802
vt 0.132259 0.604802
vt 0.116169 0.585208
vt 0.120341 0.585208
vt 0.128684 0.604046
vt 0.132855 0.604046
vt 0.124991 0.588392
vt 0.128625 0.588392
vt 0.116169 0.604046
vt 0.120341 0.604046
vt 0.128625 0.588392
vt 0.132259 0.588392
vt 0.128684 0.585208
vt 0.132855 0.585208
vt 0.311494 0.802236
vt 0.315666 0.802236
vt 0.315666 0.821073
vt 0.311494 0.821073
vt 0.320316 0.805420
vt 0.323950 0.805420
vt 0.323950 0.821829
vt 0.320316 0.821829
vt 0.323950 0.805420
vt 0.327584 0.805420
vt 0.327584 0.821829
vt 0.323950 0.821829
vt 0.324008 0.802236
vt 0.328180 0.802236
vt 0.328180 0.821073
vt 0.324008 0.821073
vt 0.124991 0.604802
vt 0.128625 0.604802
s 0
usemtl TEXTURE
f 7/1/1 5/2/1 14/3/1 15/4/1
f 3/5/2 1/6/2 2/7/2 4/8/2
f 6/9/1 7/1/1 15/4/1 9/10/1
f 33/11/3 8/12/3 5/13/3 29/14/3
f 29/15/4 5/16/4 7/17/4 31/18/4
f 36/19/5 6/17/5 8/20/5 33/21/5
f 31/22/6 7/23/6 6/24/6 36/25/6
f 15/26/6 11/27/6 10/28/6 9/29/6
f 9/30/5 10/31/5 13/32/5 16/33/5
f 14/33/4 12/32/4 11/34/4 15/35/4
f 16/36/3 13/37/3 12/38/3 14/39/3
f 8/40/1 6/9/1 9/10/1 16/41/1
f 5/2/1 8/40/1 16/41/1 14/3/1
f 18/42/1 20/43/1 28/43/1 26/42/1
f 17/44/1 19/45/1 20/43/1 18/42/1
f 11/46/2 12/47/2 23/47/2 21/46/2
f 12/48/2 13/49/2 24/49/2 23/48/2
f 19/45/1 17/44/1 25/44/1 27/45/1
f 23/48/3 24/49/3 28/49/3 27/48/3
f 21/46/4 23/47/4 27/47/4 25/46/4
f 24/47/5 22/50/5 26/50/5 28/47/5
f 22/51/6 21/52/6 25/52/6 26/51/6
f 17/44/1 18/42/1 26/42/1 25/44/1
f 13/47/2 10/50/2 22/50/2 24/47/2
f 10/51/2 11/52/2 21/52/2 22/51/2
f 20/43/1 19/45/1 27/45/1 28/43/1
f 2/53/6 32/54/6 35/55/6 4/56/6
f 35/55/1 32/54/1 40/54/1 43/55/1
f 4/57/5 35/58/5 34/59/5 3/60/5
f 34/59/1 35/58/1 43/58/1 42/59/1
f 1/61/4 30/62/4 32/63/4 2/57/4
f 32/63/1 30/62/1 38/62/1 40/63/1
f 3/64/3 34/65/3 30/66/3 1/67/3
f 30/66/1 34/65/1 42/65/1 38/66/1
f 43/58/5 51/68/5 49/69/5 42/59/5
f 50/70/3 41/11/3 37/14/3 45/71/3
f 40/54/6 48/72/6 51/73/6 43/55/6
f 33/11/2 29/14/2 37/14/2 41/11/2
f 29/15/2 31/18/2 39/18/2 37/15/2
f 36/19/2 33/21/2 41/21/2 44/19/2
f 31/22/2 36/25/2 44/25/2 39/22/2
f 45/74/4 37/15/4 39/18/4 47/75/4
f 42/65/3 49/76/3 46/77/3 38/66/3
f 52/78/5 44/19/5 41/21/5 50/79/5
f 47/80/6 39/22/6 44/25/6 52/81/6
f 50/82/3 45/83/3 46/84/3 49/85/3
f 45/86/4 47/87/4 48/88/4 46/89/4
f 52/90/5 50/91/5 49/92/5 51/93/5
f 47/94/6 52/95/6 51/96/6 48/97/6
f 38/62/4 46/98/4 48/99/4 40/63/4
