# Blender 3.6.5
# www.blender.org
mtllib Trash_Bottle_Purple.mtl
o Bottle_Purple
v 0.050676 -0.183426 -0.050676
v 0.050676 -0.183426 0.050676
v -0.050676 -0.183426 -0.050676
v -0.050676 -0.183426 0.050676
v 0.050676 0.073123 -0.050676
v -0.050676 0.073123 0.050676
v 0.050676 0.073123 0.050676
v -0.050676 0.073123 -0.050676
v -0.019563 0.073123 0.019563
v -0.019563 0.183426 0.019563
v 0.019563 0.183426 0.019563
v 0.019563 0.183426 -0.019563
v -0.019563 0.183426 -0.019563
v 0.019563 0.073123 -0.019563
v 0.019563 0.073123 0.019563
v -0.019563 0.073123 -0.019563
vn -0.0000 1.0000 -0.0000
vn -0.0000 -1.0000 -0.0000
vn -0.0000 -0.0000 -1.0000
vn 1.0000 -0.0000 -0.0000
vn -1.0000 -0.0000 -0.0000
vn -0.0000 -0.0000 1.0000
vt 0.334260 0.609431
vt 0.354849 0.609431
vt 0.348528 0.615752
vt 0.340580 0.615752
vt 0.386466 0.646242
vt 0.382833 0.646242
vt 0.382833 0.620072
vt 0.386466 0.620072
vt 0.334260 0.630020
vt 0.340580 0.623700
vt 0.368400 0.632649
vt 0.368400 0.556606
vt 0.372571 0.556606
vt 0.372571 0.632649
vt 0.377222 0.629718
vt 0.377222 0.563476
vt 0.380855 0.563476
vt 0.380855 0.629718
vt 0.384489 0.563476
vt 0.384489 0.629718
vt 0.380914 0.632649
vt 0.380914 0.556606
vt 0.385085 0.556606
vt 0.385085 0.632649
vt 0.368400 0.658289
vt 0.368400 0.617556
vt 0.370010 0.617556
vt 0.370010 0.658289
vt 0.374991 0.652054
vt 0.374991 0.616570
vt 0.376393 0.616570
vt 0.376393 0.652054
vt 0.377796 0.616570
vt 0.377796 0.652054
vt 0.373231 0.658289
vt 0.373231 0.617556
vt 0.374841 0.617556
vt 0.374841 0.658289
vt 0.354849 0.630020
vt 0.348528 0.623700
vt 0.380602 0.646242
vt 0.380602 0.656344
vt 0.379199 0.656344
vt 0.379199 0.646242
s 0
usemtl TEXTURE
f 7/1/1 5/2/1 14/3/1 15/4/1
f 3/5/2 1/6/2 2/7/2 4/8/2
f 6/9/1 7/1/1 15/4/1 9/10/1
f 3/11/3 8/12/3 5/13/3 1/14/3
f 1/15/4 5/16/4 7/17/4 2/18/4
f 4/18/5 6/17/5 8/19/5 3/20/5
f 2/21/6 7/22/6 6/23/6 4/24/6
f 15/25/6 11/26/6 10/27/6 9/28/6
f 9/29/5 10/30/5 13/31/5 16/32/5
f 14/32/4 12/31/4 11/33/4 15/34/4
f 16/35/3 13/36/3 12/37/3 14/38/3
f 8/39/1 6/9/1 9/10/1 16/40/1
f 5/2/1 8/39/1 16/40/1 14/3/1
f 11/41/1 12/42/1 13/43/1 10/44/1
