# Blender 3.6.5
# www.blender.org
mtllib Trash_Bone.mtl
o Bone
v -0.014575 0.155869 0.026340
v 0.014575 0.155869 0.026340
v 0.014575 0.000000 0.014422
v -0.014575 0.000000 0.014422
v -0.014575 0.137921 0.000000
v 0.014575 0.137921 0.000000
v 0.014575 0.120660 0.000000
v -0.014575 0.120660 0.000000
v -0.014575 0.000000 0.000000
v 0.014575 0.000000 0.000000
v -0.014575 0.120660 0.042698
v -0.014575 0.155869 0.042698
v 0.014575 0.155869 0.042698
v 0.014575 0.120660 0.042698
v 0.000000 0.155869 0.026340
v 0.000000 0.000000 0.014422
v 0.000000 0.137921 0.000000
v 0.000000 0.155869 0.051372
v 0.000000 0.120660 0.051372
v -0.017893 0.138848 0.019247
v 0.017893 0.138848 0.019247
v 0.017893 0.127832 0.000000
v -0.017893 0.127832 0.000000
v -0.017893 0.138848 0.046644
v 0.017893 0.138848 0.046644
v 0.000000 0.138848 0.057292
v -0.014575 0.069878 0.014422
v -0.014575 0.098088 0.018496
v -0.015846 0.111359 0.016270
v -0.014575 0.101494 0.010481
v 0.014575 0.098088 0.018496
v 0.014575 0.069878 0.014422
v 0.014575 0.101494 0.010481
v 0.015846 0.111359 0.016270
v 0.000000 0.069878 0.014422
v 0.000000 0.097210 0.018517
v -0.014575 0.155869 -0.026340
v 0.014575 0.155869 -0.026340
v 0.014575 0.000000 -0.014422
v -0.014575 0.000000 -0.014422
v -0.014575 0.120660 -0.042698
v -0.014575 0.155869 -0.042698
v 0.014575 0.155869 -0.042698
v 0.014575 0.120660 -0.042698
v 0.000000 0.155869 -0.026340
v 0.000000 0.000000 -0.014422
v 0.000000 0.155869 -0.051372
v 0.000000 0.120660 -0.051372
v -0.017893 0.138848 -0.019247
v 0.017893 0.138848 -0.019247
v -0.017893 0.138848 -0.046644
v 0.017893 0.138848 -0.046644
v 0.000000 0.138848 -0.057292
v -0.014575 0.069878 -0.014422
v -0.014575 0.098088 -0.018496
v -0.015846 0.111359 -0.016270
v -0.014575 0.101494 -0.010481
v 0.014575 0.098088 -0.018496
v 0.014575 0.069878 -0.014422
v 0.014575 0.101494 -0.010481
v 0.015846 0.111359 -0.016270
v 0.000000 0.069878 -0.014422
v 0.000000 0.097210 -0.018517
v -0.014575 -0.155869 0.026340
v 0.014575 -0.155869 0.026340
v -0.014575 -0.137921 0.000000
v 0.014575 -0.137921 0.000000
v 0.014575 -0.120660 0.000000
v -0.014575 -0.120660 0.000000
v -0.014575 -0.120660 0.042698
v -0.014575 -0.155869 0.042698
v 0.014575 -0.155869 0.042698
v 0.014575 -0.120660 0.042698
v 0.000000 -0.155869 0.026340
v 0.000000 -0.137921 0.000000
v 0.000000 -0.155869 0.051372
v 0.000000 -0.120660 0.051372
v -0.017893 -0.138848 0.019247
v 0.017893 -0.138848 0.019247
v 0.017893 -0.127832 0.000000
v -0.017893 -0.127832 0.000000
v -0.017893 -0.138848 0.046644
v 0.017893 -0.138848 0.046644
v 0.000000 -0.138848 0.057292
v -0.014575 -0.069878 0.014422
v -0.014575 -0.098088 0.018496
v -0.015846 -0.111359 0.016270
v -0.014575 -0.101494 0.010481
v 0.014575 -0.098088 0.018496
v 0.014575 -0.069878 0.014422
v 0.014575 -0.101494 0.010481
v 0.015846 -0.111359 0.016270
v 0.000000 -0.069878 0.014422
v 0.000000 -0.097210 0.018517
v -0.014575 -0.155869 -0.026340
v 0.014575 -0.155869 -0.026340
v -0.014575 -0.120660 -0.042698
v -0.014575 -0.155869 -0.042698
v 0.014575 -0.155869 -0.042698
v 0.014575 -0.120660 -0.042698
v 0.000000 -0.155869 -0.026340
v 0.000000 -0.155869 -0.051372
v 0.000000 -0.120660 -0.051372
v -0.017893 -0.138848 -0.019247
v 0.017893 -0.138848 -0.019247
v -0.017893 -0.138848 -0.046644
v 0.017893 -0.138848 -0.046644
v 0.000000 -0.138848 -0.057292
v -0.014575 -0.069878 -0.014422
v -0.014575 -0.098088 -0.018496
v -0.015846 -0.111359 -0.016270
v -0.014575 -0.101494 -0.010481
v 0.014575 -0.098088 -0.018496
v 0.014575 -0.069878 -0.014422
v 0.014575 -0.101494 -0.010481
v 0.015846 -0.111359 -0.016270
v 0.000000 -0.069878 -0.014422
v 0.000000 -0.097210 -0.018517
vn 0.9445 0.2773 -0.1762
vn -0.0000 1.0000 -0.0000
vn -0.0000 0.8264 -0.5631
vn -0.2061 -0.7616 0.6143
vn 0.2061 -0.7616 0.6143
vn -0.9922 -0.1136 0.0523
vn -0.9445 0.2772 -0.1762
vn -0.4900 0.2864 0.8234
vn -0.9905 -0.1277 -0.0500
vn -0.0000 -0.0000 1.0000
vn 0.9815 0.1913 -0.0000
vn 0.9905 -0.1277 -0.0500
vn 0.4900 0.2864 0.8234
vn 0.9922 -0.1136 0.0523
vn 0.4925 -0.2694 0.8276
vn -0.9815 0.1913 -0.0000
vn -0.4925 -0.2694 0.8276
vn 1.0000 -0.0000 -0.0000
vn -0.9995 -0.0301 -0.0128
vn 0.9995 -0.0301 -0.0128
vn -0.0051 -0.1455 0.9893
vn 0.0051 -0.1455 0.9893
vn -1.0000 -0.0000 -0.0000
vn 0.9445 0.2772 0.1762
vn -0.0000 0.8264 0.5631
vn -0.2061 -0.7616 -0.6143
vn 0.2061 -0.7616 -0.6143
vn -0.9922 -0.1136 -0.0523
vn -0.9445 0.2772 0.1762
vn -0.4900 0.2864 -0.8234
vn -0.9905 -0.1277 0.0500
vn -0.0000 -0.0000 -1.0000
vn 0.9905 -0.1277 0.0500
vn 0.4900 0.2864 -0.8234
vn 0.9922 -0.1136 -0.0523
vn 0.4925 -0.2694 -0.8276
vn -0.4925 -0.2694 -0.8276
vn -0.9995 -0.0301 0.0128
vn 0.9995 -0.0301 0.0128
vn -0.0051 -0.1455 -0.9893
vn 0.0051 -0.1455 -0.9893
vn 0.9445 -0.2772 -0.1762
vn -0.0000 -1.0000 -0.0000
vn -0.0000 -0.8264 -0.5631
vn -0.2061 0.7616 0.6143
vn 0.2061 0.7616 0.6143
vn -0.9922 0.1136 0.0523
vn -0.9445 -0.2772 -0.1762
vn -0.4900 -0.2864 0.8234
vn -0.9905 0.1277 -0.0500
vn 0.9815 -0.1913 -0.0000
vn 0.9905 0.1277 -0.0500
vn 0.4900 -0.2864 0.8234
vn 0.9922 0.1136 0.0523
vn 0.4925 0.2694 0.8276
vn -0.9815 -0.1913 -0.0000
vn -0.4925 0.2694 0.8276
vn -0.9995 0.0301 -0.0128
vn 0.9995 0.0301 -0.0128
vn -0.0051 0.1455 0.9893
vn 0.0051 0.1455 0.9893
vn 0.9445 -0.2773 0.1762
vn -0.0000 -0.8264 0.5631
vn -0.2061 0.7616 -0.6143
vn 0.2061 0.7616 -0.6143
vn -0.9922 0.1136 -0.0523
vn -0.9445 -0.2772 0.1762
vn -0.4900 -0.2864 -0.8234
vn -0.9905 0.1277 0.0500
vn 0.9905 0.1277 0.0500
vn 0.4900 -0.2864 -0.8234
vn 0.9922 0.1136 -0.0523
vn 0.4925 0.2694 -0.8276
vn -0.4925 0.2694 -0.8276
vn -0.9995 0.0301 0.0128
vn 0.9995 0.0301 0.0128
vn -0.0051 0.1455 -0.9893
vn 0.0051 0.1455 -0.9893
vt 0.564910 0.777206
vt 0.564874 0.779452
vt 0.554958 0.779452
vt 0.557671 0.777206
vt 0.554958 0.789320
vt 0.554958 0.799188
vt 0.548839 0.799188
vt 0.545594 0.789320
vt 0.711087 0.904034
vt 0.711087 0.911801
vt 0.703282 0.911801
vt 0.703282 0.904034
vt 0.579547 0.911218
vt 0.579556 0.921086
vt 0.567372 0.921086
vt 0.570470 0.911218
vt 0.579547 0.930955
vt 0.570470 0.930955
vt 0.578500 0.777206
vt 0.580088 0.778591
vt 0.579547 0.779452
vt 0.570470 0.779452
vt 0.568714 0.777206
vt 0.557671 0.801434
vt 0.564874 0.799188
vt 0.564910 0.801434
vt 0.543440 0.789320
vt 0.547423 0.801434
vt 0.582345 0.779452
vt 0.585586 0.777206
vt 0.585723 0.779452
vt 0.547864 0.952937
vt 0.543440 0.952937
vt 0.543440 0.943069
vt 0.547864 0.943069
vt 0.548839 0.779452
vt 0.547423 0.777206
vt 0.585723 0.799188
vt 0.585586 0.801434
vt 0.578500 0.801434
vt 0.580088 0.800048
vt 0.582345 0.799188
vt 0.579547 0.799188
vt 0.568714 0.801434
vt 0.570470 0.799188
vt 0.711087 0.896267
vt 0.703282 0.896267
vt 0.564910 0.789320
vt 0.567372 0.789320
vt 0.543440 0.933201
vt 0.547864 0.933201
vt 0.547864 0.808981
vt 0.547864 0.801434
vt 0.551791 0.802639
vt 0.553267 0.804620
vt 0.553267 0.808990
vt 0.556320 0.804620
vt 0.554794 0.802858
vt 0.555618 0.801893
vt 0.557796 0.802639
vt 0.553969 0.801893
vt 0.581540 0.911218
vt 0.581540 0.921086
vt 0.581540 0.930955
vt 0.556320 0.808990
vt 0.561723 0.801434
vt 0.561723 0.808981
s 0
usemtl TEXTURE
f 22/1/1 6/2/1 2/3/1 21/4/1
f 15/5/2 1/6/2 12/7/2 18/8/2
f 17/9/3 5/10/3 1/11/3 15/12/3
f 28/13/4 36/14/4 19/15/4 11/16/4
f 36/14/5 31/17/5 14/18/5 19/15/5
f 20/19/6 29/20/6 28/21/6 11/22/6 24/23/6
f 20/24/7 1/6/7 5/25/7 23/26/7
f 26/27/8 18/8/8 12/7/8 24/28/8
f 30/29/9 29/20/9 20/19/9 23/30/9 8/31/9
f 3/32/10 32/33/10 35/34/10 16/35/10
f 21/4/11 2/3/11 13/36/11 25/37/11
f 7/38/12 22/39/12 21/40/12 34/41/12 33/42/12
f 25/37/13 13/36/13 18/8/13 26/27/13
f 31/43/14 34/41/14 21/40/14 25/44/14 14/45/14
f 6/46/3 17/9/3 15/12/3 2/47/3
f 2/3/2 15/5/2 18/8/2 13/36/2
f 14/45/15 25/44/15 26/48/15 19/49/15
f 1/6/16 20/24/16 24/28/16 12/7/16
f 19/49/17 26/48/17 24/23/17 11/22/17
f 16/35/10 35/34/10 27/50/10 4/51/10
f 10/52/18 7/53/18 33/54/18 32/55/18 3/56/18
f 27/57/19 28/58/19 29/59/19 30/60/19
f 31/58/20 32/55/20 33/54/20 34/61/20
f 36/14/21 28/13/21 27/62/21 35/63/21
f 31/17/22 36/14/22 35/63/22 32/64/22
f 4/65/23 27/57/23 30/60/23 8/66/23 9/67/23
f 22/1/24 50/4/24 38/3/24 6/2/24
f 45/5/2 47/8/2 42/7/2 37/6/2
f 17/9/25 45/12/25 37/11/25 5/10/25
f 55/13/26 41/16/26 48/15/26 63/14/26
f 63/14/27 48/15/27 44/18/27 58/17/27
f 49/19/28 51/23/28 41/22/28 55/21/28 56/20/28
f 49/24/29 23/26/29 5/25/29 37/6/29
f 53/27/30 51/28/30 42/7/30 47/8/30
f 57/29/31 8/31/31 23/30/31 49/19/31 56/20/31
f 39/32/32 46/35/32 62/34/32 59/33/32
f 50/4/11 52/37/11 43/36/11 38/3/11
f 7/38/33 60/42/33 61/41/33 50/40/33 22/39/33
f 52/37/34 53/27/34 47/8/34 43/36/34
f 58/43/35 44/45/35 52/44/35 50/40/35 61/41/35
f 6/46/25 38/47/25 45/12/25 17/9/25
f 38/3/2 43/36/2 47/8/2 45/5/2
f 44/45/36 48/49/36 53/48/36 52/44/36
f 37/6/16 42/7/16 51/28/16 49/24/16
f 48/49/37 41/22/37 51/23/37 53/48/37
f 46/35/32 40/51/32 54/50/32 62/34/32
f 10/52/18 39/56/18 59/55/18 60/54/18 7/53/18
f 54/57/38 57/60/38 56/59/38 55/58/38
f 58/58/39 61/61/39 60/54/39 59/55/39
f 63/14/40 62/63/40 54/62/40 55/13/40
f 58/17/41 59/64/41 62/63/41 63/14/41
f 40/65/23 9/67/23 8/66/23 57/60/23 54/57/23
f 80/1/42 79/4/42 65/3/42 67/2/42
f 74/5/43 76/8/43 71/7/43 64/6/43
f 75/9/44 74/12/44 64/11/44 66/10/44
f 86/13/45 70/16/45 77/15/45 94/14/45
f 94/14/46 77/15/46 73/18/46 89/17/46
f 78/19/47 82/23/47 70/22/47 86/21/47 87/20/47
f 78/24/48 81/26/48 66/25/48 64/6/48
f 84/27/49 82/28/49 71/7/49 76/8/49
f 88/29/50 69/31/50 81/30/50 78/19/50 87/20/50
f 3/32/10 16/35/10 93/34/10 90/33/10
f 79/4/51 83/37/51 72/36/51 65/3/51
f 68/38/52 91/42/52 92/41/52 79/40/52 80/39/52
f 83/37/53 84/27/53 76/8/53 72/36/53
f 89/43/54 73/45/54 83/44/54 79/40/54 92/41/54
f 67/46/44 65/47/44 74/12/44 75/9/44
f 65/3/43 72/36/43 76/8/43 74/5/43
f 73/45/55 77/49/55 84/48/55 83/44/55
f 64/6/56 71/7/56 82/28/56 78/24/56
f 77/49/57 70/22/57 82/23/57 84/48/57
f 16/35/10 4/51/10 85/50/10 93/34/10
f 10/52/18 3/56/18 90/55/18 91/54/18 68/53/18
f 85/57/58 88/60/58 87/59/58 86/58/58
f 89/58/59 92/61/59 91/54/59 90/55/59
f 94/14/60 93/63/60 85/62/60 86/13/60
f 89/17/61 90/64/61 93/63/61 94/14/61
f 4/65/23 9/67/23 69/66/23 88/60/23 85/57/23
f 80/1/62 67/2/62 96/3/62 105/4/62
f 101/5/43 95/6/43 98/7/43 102/8/43
f 75/9/63 66/10/63 95/11/63 101/12/63
f 110/13/64 118/14/64 103/15/64 97/16/64
f 118/14/65 113/17/65 100/18/65 103/15/65
f 104/19/66 111/20/66 110/21/66 97/22/66 106/23/66
f 104/24/67 95/6/67 66/25/67 81/26/67
f 108/27/68 102/8/68 98/7/68 106/28/68
f 112/29/69 111/20/69 104/19/69 81/30/69 69/31/69
f 39/32/32 114/33/32 117/34/32 46/35/32
f 105/4/51 96/3/51 99/36/51 107/37/51
f 68/38/70 80/39/70 105/40/70 116/41/70 115/42/70
f 107/37/71 99/36/71 102/8/71 108/27/71
f 113/43/72 116/41/72 105/40/72 107/44/72 100/45/72
f 67/46/63 75/9/63 101/12/63 96/47/63
f 96/3/43 101/5/43 102/8/43 99/36/43
f 100/45/73 107/44/73 108/48/73 103/49/73
f 95/6/56 104/24/56 106/28/56 98/7/56
f 103/49/74 108/48/74 106/23/74 97/22/74
f 46/35/32 117/34/32 109/50/32 40/51/32
f 10/52/18 68/53/18 115/54/18 114/55/18 39/56/18
f 109/57/75 110/58/75 111/59/75 112/60/75
f 113/58/76 114/55/76 115/54/76 116/61/76
f 118/14/77 110/13/77 109/62/77 117/63/77
f 113/17/78 118/14/78 117/63/78 114/64/78
f 40/65/23 109/57/23 112/60/23 69/66/23 9/67/23
